<svg width="498" height="114" viewBox="0 0 498 114" fill="none" xmlns="http://www.w3.org/2000/svg">
<path d="M39.82 8.64C68.46 8.64 91.82 31.84 91.82 60.64C91.82 89.28 68.46 112.64 39.82 112.64H1.58H0.3V8.64H0.62H39.82ZM59.66 80.48C64.94 75.2 67.82 68.16 67.82 60.64C67.82 53.12 64.94 46.08 59.66 40.64C54.38 35.36 47.18 32.48 39.66 32.48H25.26V88.64H39.82C47.34 88.64 54.38 85.76 59.66 80.48ZM123.634 0.479996V19.36H101.394V0.479996H123.634ZM123.794 29.76V112H101.394V29.76H123.794ZM171.345 29.6C194.065 29.44 212.625 47.84 212.625 70.56C212.785 93.28 194.545 111.84 171.825 112C148.945 112.16 130.385 93.76 130.385 71.04C130.225 48.32 148.465 29.76 171.345 29.6ZM185.905 85.12C189.745 81.28 191.825 76.16 191.825 70.72C191.825 65.28 189.585 60.16 185.745 56.32C181.905 52.64 176.785 50.56 171.345 50.56C165.905 50.56 160.945 52.64 157.105 56.48C153.265 60.48 151.185 65.44 151.185 70.88C151.185 76.32 153.425 81.44 157.265 85.28C161.105 89.12 166.225 91.2 171.665 91.2C177.105 91.04 182.225 88.96 185.905 85.12ZM307.805 112H285.405V102.56C278.365 108.32 269.245 112 259.325 112C236.605 112.16 218.045 93.76 217.885 71.04C217.725 48.32 236.125 29.76 258.845 29.6C268.925 29.6 278.045 33.12 285.245 39.04V0.319998H307.645L307.805 112ZM273.565 85.12C277.405 81.28 279.485 76.16 279.485 70.72C279.325 65.28 277.245 60.16 273.405 56.32C269.565 52.64 264.445 50.56 259.005 50.56C253.565 50.56 248.445 52.64 244.605 56.48C240.925 60.48 238.685 65.44 238.845 70.88C238.845 76.32 240.925 81.44 244.765 85.28C248.605 89.12 253.725 91.2 259.165 91.2C264.605 91.04 269.725 88.96 273.565 85.12ZM402.131 51.68H422.931V112H402.131V103.68C393.331 109.92 382.611 113.6 370.931 113.6C341.331 113.6 317.331 89.6 317.331 60C317.331 30.4 341.331 6.4 370.931 6.4C384.211 6.4 396.371 11.2 405.811 19.2L389.811 35.04C384.371 31.04 377.811 28.8 370.931 28.8C362.611 28.8 354.771 32 349.011 37.92C343.091 43.84 339.731 51.68 339.731 60C339.731 68.32 343.091 76.16 349.011 82.08C354.771 87.84 362.611 91.2 370.931 91.2C379.251 91.2 387.091 87.84 393.011 82.08C394.131 80.96 398.771 76.16 400.211 72.48H376.211V51.68H402.131ZM401.971 72.48L402.131 72.64V72.48H401.971ZM497.465 32.96H470.425V112H445.465V32.96H418.425V7.99999H497.465V32.96Z" fill="black"/>
</svg>
